<?xml version="1.0" standalone="no"?>
<!DOCTYPE svg PUBLIC "-//W3C//DTD SVG 20010904//EN"
 "http://www.w3.org/TR/2001/REC-SVG-20010904/DTD/svg10.dtd">
<svg version="1.0" xmlns="http://www.w3.org/2000/svg"
 width="1024.000000pt" height="1024.000000pt" viewBox="0 0 1024.000000 1024.000000"
 preserveAspectRatio="xMidYMid meet">
<metadata>
Created by potrace 1.14, written by Peter Selinger 2001-2017
</metadata>
<g transform="translate(0.000000,1024.000000) scale(0.100000,-0.100000)"
fill="#000000" stroke="none">
<path d="M213 10222 c-96 -34 -170 -111 -198 -207 -13 -44 -15 -648 -13 -4915
l3 -4865 28 -57 c32 -65 89 -121 156 -152 l46 -21 4885 0 4885 0 57 28 c65 32
121 89 152 156 l21 46 0 4885 0 4885 -21 46 c-31 67 -87 124 -152 156 l-57 28
-4870 2 c-4655 2 -4872 2 -4922 -15z m2357 -3376 c213 -39 418 -123 566 -234
76 -57 209 -187 250 -245 l20 -29 28 41 c40 57 200 209 271 258 142 96 318
167 510 205 145 29 457 32 605 5 209 -38 398 -111 550 -212 244 -162 423 -426
510 -754 l28 -106 23 55 c188 450 563 791 1034 943 405 131 849 129 1250 -4
587 -194 990 -651 1123 -1268 25 -118 26 -142 26 -381 0 -239 -1 -263 -26
-381 -164 -764 -748 -1278 -1547 -1359 -769 -77 -1466 269 -1795 893 l-46 88
0 -451 0 -450 -510 0 -509 0 -3 1033 -3 1032 -28 79 c-78 222 -220 316 -477
316 -266 0 -415 -110 -486 -360 -17 -61 -19 -128 -22 -1082 l-3 -1018 -504 0
-504 0 -3 1013 c-3 1003 -4 1013 -25 1089 -71 250 -217 358 -483 358 -322 0
-481 -158 -510 -508 -5 -65 -10 -530 -10 -1034 l0 -918 -505 0 -505 0 0 978
c0 561 4 1026 10 1092 67 778 488 1240 1210 1329 105 13 388 6 490 -13z"/>
<path d="M7421 5910 c-200 -42 -374 -161 -476 -324 -95 -153 -140 -371 -117
-571 37 -335 224 -574 522 -667 66 -20 94 -23 240 -23 150 1 172 3 242 27 233
78 404 254 477 490 34 112 47 261 32 383 -24 209 -89 353 -216 481 -89 90
-174 143 -293 182 -65 21 -100 25 -222 28 -80 2 -165 -1 -189 -6z"/>
</g>
</svg>
